<svg width="149" height="149" viewBox="0 0 149 149" fill="none" xmlns="http://www.w3.org/2000/svg">
<g clip-path="url(#clip0_330_64)">
<path d="M106.677 0H42.3229C18.9486 0 0 18.9486 0 42.3229V106.677C0 130.051 18.9486 149 42.3229 149H106.677C130.051 149 149 130.051 149 106.677V42.3229C149 18.9486 130.051 0 106.677 0Z" fill="#CDD846"/>
<path d="M31.0212 24.5415C61.2369 54.7805 91.4525 85.0195 121.68 115.258L31.0212 24.5415Z" fill="#CDD846"/>
<path d="M121.668 117.243C121.154 117.243 120.652 117.045 120.267 116.659L29.6202 25.9425C28.8496 25.1719 28.8496 23.911 29.6202 23.1404C30.3907 22.3699 31.6517 22.3699 32.4222 23.1404L123.081 113.857C123.851 114.628 123.851 115.889 123.081 116.659C122.696 117.045 122.182 117.243 121.68 117.243H121.668Z" fill="#030303"/>
<path d="M96.2043 23.9692C80.3492 58.9717 64.4942 93.9859 48.6392 128.988L96.2043 23.9692Z" fill="#CDD846"/>
<path d="M48.6392 130.973C48.3707 130.973 48.0905 130.915 47.822 130.798C46.8296 130.343 46.3859 129.175 46.8296 128.171L94.3947 23.152C94.85 22.1596 96.0175 21.716 97.0216 22.1596C98.014 22.615 98.4577 23.7825 98.014 24.7866L50.4489 129.806C50.122 130.541 49.3981 130.973 48.6392 130.973Z" fill="#030303"/>
<path d="M96.2041 23.9692C78.9363 28.0906 61.6569 32.2237 44.3892 36.345L96.2041 23.9692Z" fill="#CDD846"/>
<path d="M44.3892 38.3299C43.4902 38.3299 42.6846 37.7228 42.4628 36.8121C42.2059 35.7496 42.8597 34.6755 43.9339 34.4187L95.7488 22.0429C96.8112 21.786 97.8854 22.4398 98.1422 23.5139C98.3991 24.5881 97.7453 25.6505 96.6711 25.9074L44.8562 38.2832C44.7044 38.3182 44.541 38.3416 44.3892 38.3416V38.3299Z" fill="#030303"/>
<path d="M126.151 49.9819C90.39 64.0623 54.6403 78.1544 18.8789 92.2348L126.151 49.9819Z" fill="#CDD846"/>
<path d="M18.8788 94.2195C18.0849 94.2195 17.3377 93.7408 17.0341 92.9586C16.6372 91.9428 17.1392 90.787 18.155 90.39L125.427 48.1372C126.443 47.7402 127.599 48.2422 127.996 49.258C128.393 50.2737 127.891 51.4296 126.875 51.8265L19.6144 94.0794C19.3809 94.1728 19.124 94.2195 18.8905 94.2195H18.8788Z" fill="#030303"/>
<path d="M125.976 49.7599C116.052 41.1669 106.128 32.5622 96.2043 23.9692L125.976 49.7599Z" fill="#CDD846"/>
<path d="M125.976 51.7449C125.521 51.7449 125.054 51.5814 124.68 51.2662L94.9084 25.4755C94.0794 24.7633 93.986 23.5023 94.7099 22.6734C95.4221 21.8444 96.683 21.7627 97.5119 22.4749L127.284 48.2656C128.113 48.9778 128.206 50.2387 127.482 51.0677C127.085 51.523 126.537 51.7565 125.988 51.7565L125.976 51.7449Z" fill="#030303"/>
<path d="M22.1711 90.0863C29.3398 72.2815 36.5084 54.4767 43.6887 36.6719L22.1711 90.0863Z" fill="#CDD846"/>
<path d="M22.1711 92.0711C21.926 92.0711 21.6691 92.0244 21.4356 91.931C20.4199 91.5224 19.9295 90.3665 20.3381 89.3508L41.8557 35.9363C42.2643 34.9206 43.4202 34.4302 44.4359 34.8389C45.4517 35.2475 45.942 36.4033 45.5334 37.4191L24.0158 90.8335C23.7006 91.6041 22.9651 92.0711 22.1711 92.0711Z" fill="#030303"/>
<path d="M52.3516 117.348C42.3693 108.685 32.3869 100.01 22.4045 91.3472L52.3516 117.348Z" fill="#CDD846"/>
<path d="M52.3518 119.333C51.8964 119.333 51.4294 119.169 51.0558 118.843L21.1087 92.8417C20.2798 92.1295 20.198 90.8686 20.9102 90.0396C21.6224 89.2107 22.8833 89.1289 23.7123 89.8411L53.6594 115.842C54.4883 116.554 54.5701 117.815 53.8579 118.644C53.4609 119.099 52.9122 119.321 52.3634 119.321L52.3518 119.333Z" fill="#030303"/>
<path d="M53.7529 117.056C69.0709 108.101 84.3772 99.1464 99.6952 90.2031L53.7529 117.056Z" fill="#CDD846"/>
<path d="M53.753 119.041C53.0758 119.041 52.4103 118.691 52.0367 118.06C51.488 117.115 51.8032 115.901 52.7489 115.352L98.6912 88.4986C99.6369 87.9499 100.851 88.2651 101.4 89.2108C101.949 90.1565 101.633 91.3708 100.688 91.9195L54.7454 118.773C54.4302 118.959 54.0916 119.041 53.7413 119.041H53.753Z" fill="#030303"/>
<path d="M112.538 106.058C117.08 87.366 121.61 68.6738 126.151 49.9817L112.538 106.058Z" fill="#CDD846"/>
<path d="M112.538 108.043C112.386 108.043 112.223 108.02 112.071 107.985C111.008 107.728 110.355 106.654 110.611 105.591L124.225 49.5148C124.482 48.4523 125.556 47.7985 126.618 48.0553C127.681 48.3122 128.335 49.3863 128.078 50.4488L114.464 106.525C114.243 107.436 113.437 108.043 112.538 108.043Z" fill="#030303"/>
<path d="M58.1428 50.659C67.8683 47.063 77.6055 43.4554 87.331 39.8594L58.1428 50.659Z" fill="#CDD846"/>
<path d="M58.1427 52.6437C57.3371 52.6437 56.5782 52.1533 56.2863 51.3477C55.9011 50.3203 56.4264 49.1761 57.4539 48.8025L86.6421 38.0029C87.6695 37.6176 88.8137 38.143 89.1873 39.1704C89.5726 40.1978 89.0472 41.342 88.0198 41.7156L58.8316 52.5153C58.6097 52.597 58.3762 52.6437 58.1427 52.6437Z" fill="#030303"/>
<path d="M57.057 51.593C53.5077 61.3419 49.9467 71.0907 46.3975 80.8279L57.057 51.593Z" fill="#CDD846"/>
<path d="M46.3858 82.8126C46.164 82.8126 45.9305 82.7776 45.7087 82.6959C44.6812 82.3223 44.1559 81.1781 44.5295 80.1507L55.189 50.9157C55.5626 49.8883 56.7068 49.3513 57.7342 49.7365C58.7616 50.1101 59.2987 51.2543 58.9134 52.2817L48.2539 81.5167C47.962 82.3223 47.2031 82.8243 46.3858 82.8243V82.8126Z" fill="#030303"/>
<path d="M64.0154 94.3013C58.6798 89.9464 53.3559 85.5915 48.0203 81.2483L64.0154 94.3013Z" fill="#CDD846"/>
<path d="M64.0155 96.2861C63.5718 96.2861 63.1281 96.1343 62.7662 95.8424L46.7711 82.7895C45.9188 82.1006 45.802 80.8514 46.4908 79.9991C47.1797 79.1468 48.4289 79.03 49.2812 79.7189L65.2764 92.7835C66.1287 93.4724 66.2454 94.7216 65.5566 95.5739C65.1596 96.0526 64.5992 96.2978 64.0155 96.2978V96.2861Z" fill="#030303"/>
<path d="M111.581 54.5234C104.949 49.9584 98.3174 45.3817 91.6975 40.8167L111.581 54.5234Z" fill="#CDD846"/>
<path d="M111.581 56.5083C111.195 56.5083 110.798 56.3915 110.46 56.158L90.5767 42.4512C89.6777 41.8324 89.4442 40.5949 90.063 39.6959C90.6818 38.7969 91.9194 38.5634 92.8184 39.1822L112.701 52.8889C113.6 53.5077 113.834 54.7453 113.215 55.6443C112.83 56.2047 112.211 56.4966 111.581 56.4966V56.5083Z" fill="#030303"/>
<path d="M99.6951 90.1914C104.68 78.6563 109.677 67.1094 114.663 55.5742L99.6951 90.1914Z" fill="#CDD846"/>
<path d="M99.6951 92.1763C99.4382 92.1763 99.1697 92.1179 98.9129 92.0128C97.9088 91.5808 97.4418 90.4133 97.8738 89.4092L112.841 54.792C113.273 53.7879 114.441 53.3209 115.445 53.7529C116.449 54.1849 116.916 55.3524 116.484 56.3565L101.516 90.9737C101.19 91.7209 100.466 92.1646 99.6951 92.1646V92.1763Z" fill="#030303"/>
<path d="M64.5293 94.0678C71.7446 90.0399 78.9483 86.0236 86.1636 81.9956L64.5293 94.0678Z" fill="#CDD846"/>
<path d="M64.5292 96.0525C63.8287 96.0525 63.1632 95.6906 62.8013 95.0368C62.2642 94.0794 62.6144 92.8769 63.5718 92.3398L85.2061 80.2676C86.1635 79.7305 87.3661 80.0808 87.9031 81.0381C88.4402 81.9955 88.0899 83.1981 87.1325 83.7351L65.4982 95.8074C65.1947 95.9825 64.8561 96.0642 64.5292 96.0642V96.0525Z" fill="#030303"/>
<path d="M93.5423 63.1399C91.8844 68.6973 90.2265 74.2431 88.5686 79.8005L93.5423 63.1399Z" fill="#CDD846"/>
<path d="M88.5685 81.7735C88.3817 81.7735 88.1949 81.7502 87.9964 81.6918C86.9456 81.3766 86.3502 80.2791 86.6654 79.2283L91.6391 62.5677C91.9543 61.5169 93.0518 60.9215 94.1026 61.2367C95.1534 61.5519 95.7488 62.6494 95.4336 63.7002L90.4599 80.3608C90.203 81.2248 89.4091 81.7735 88.5568 81.7735H88.5685Z" fill="#030303"/>
<path d="M82.4741 57.3958L93.1103 63.0583L82.4741 57.3958Z" fill="#CDD846"/>
<path d="M93.1103 65.0431C92.7951 65.0431 92.4798 64.973 92.1763 64.8095L81.5401 59.147C80.571 58.6333 80.2091 57.4308 80.7228 56.4617C81.2365 55.4927 82.4391 55.1307 83.4081 55.6444L94.0443 61.307C95.0134 61.8207 95.3753 63.0232 94.8616 63.9923C94.4997 64.6578 93.8225 65.0431 93.1103 65.0431Z" fill="#030303"/>
</g>
<defs>
<clipPath id="clip0_330_64">
<rect width="149" height="149" fill="white"/>
</clipPath>
</defs>
</svg>
