<svg width="51" height="51" viewBox="0 0 51 51" fill="none" xmlns="http://www.w3.org/2000/svg">
<path d="M42.334 35.5605C42.8652 35.793 43.2637 36.1084 43.5293 36.5068C43.7949 36.9053 43.9858 37.3867 44.1021 37.9512C44.1685 38.2832 44.2432 38.5903 44.3262 38.8726C44.4092 39.1548 44.5088 39.4204 44.625 39.6694C44.7412 39.9185 44.874 40.1592 45.0234 40.3916C45.1729 40.624 45.3721 40.8813 45.6211 41.1636C45.8369 41.396 46.0278 41.6948 46.1938 42.0601C46.3599 42.4253 46.4429 42.7739 46.4429 43.106C46.4429 43.4878 46.3433 43.8115 46.144 44.0771C45.9448 44.3428 45.6958 44.5752 45.397 44.7744C45.0151 45.04 44.6167 45.2725 44.2017 45.4717C43.7866 45.6709 43.3716 45.8784 42.9565 46.0942C42.2759 46.4263 41.6865 46.7749 41.1885 47.1401C40.6904 47.5054 40.1924 47.9702 39.6943 48.5347C39.4287 48.8335 39.1299 49.124 38.7979 49.4062C38.4658 49.6885 38.1006 49.9541 37.7021 50.2031C37.3037 50.4521 36.897 50.6348 36.4819 50.751C36.0669 50.8672 35.6519 50.9419 35.2368 50.9751C34.2739 50.9751 33.4771 50.8091 32.8462 50.4771C32.2153 50.145 31.6675 49.5391 31.2026 48.6592C31.0698 48.4102 30.937 48.2524 30.8042 48.186C30.6714 48.1196 30.4556 48.0615 30.1567 48.0117C29.3101 47.9453 28.4717 47.8789 27.6416 47.8125C26.8115 47.7461 25.9648 47.7129 25.1016 47.7129C24.4043 47.7129 23.6904 47.771 22.96 47.8872C22.2295 48.0034 21.5073 48.1445 20.7935 48.3105C20.644 48.3438 20.4946 48.4683 20.3452 48.6841C20.1958 48.8999 19.9883 49.1406 19.7227 49.4062C19.457 49.6719 19.1001 49.9043 18.6519 50.1035C18.2036 50.3027 17.6143 50.4106 16.8838 50.4272C16.3359 50.4272 15.7466 50.3691 15.1157 50.2529C14.4849 50.1367 13.9204 49.9458 13.4224 49.6802C12.3931 49.1655 11.3804 48.8169 10.3843 48.6343C9.38818 48.4517 8.33398 48.2856 7.22168 48.1362C6.83984 48.0864 6.47461 48.02 6.12598 47.937C5.77734 47.854 5.47021 47.7129 5.20459 47.5137C4.93896 47.3145 4.73145 47.082 4.58203 46.8164C4.43262 46.5508 4.34961 46.1772 4.33301 45.6958C4.33301 45.1812 4.39941 44.6831 4.53223 44.2017C4.66504 43.7202 4.73975 43.2139 4.75635 42.6826C4.75635 42.3174 4.73145 41.9604 4.68164 41.6118C4.63184 41.2632 4.59863 40.8896 4.58203 40.4912C4.58203 39.6445 4.78125 39.022 5.17969 38.6235C5.57812 38.2251 6.15918 37.9097 6.92285 37.6772C7.28809 37.561 7.60352 37.4033 7.86914 37.2041C8.13477 37.0049 8.38379 36.7891 8.61621 36.5566C8.84863 36.3242 9.06445 36.0669 9.26367 35.7847C9.46289 35.5024 9.68701 35.2202 9.93604 34.938C9.98584 34.8716 10.0107 34.7969 10.0107 34.7139C10.0107 34.5146 10.0024 34.3237 9.98584 34.1411C9.96924 33.9585 9.95264 33.7593 9.93604 33.5435C9.93604 32.4146 10.1104 31.2773 10.459 30.1318C10.8076 28.9863 11.2642 27.8657 11.8286 26.77C12.3931 25.6743 13.0239 24.6201 13.7212 23.6074C14.4185 22.5947 15.1074 21.6567 15.7881 20.7935C16.751 19.5649 17.4731 18.2866 17.9546 16.9585C18.436 15.6304 18.6851 14.186 18.7017 12.6255C18.7017 11.9614 18.6685 11.3057 18.6021 10.6582C18.5356 10.0107 18.5024 9.34668 18.5024 8.66602C18.5024 7.33789 18.6519 6.14258 18.9507 5.08008C19.2495 4.01758 19.7144 3.10449 20.3452 2.34082C20.9761 1.57715 21.7979 1.00439 22.8105 0.622559C23.8232 0.240723 25.0352 0.0332031 26.4463 0C28.123 0 29.4595 0.332031 30.4556 0.996094C31.4517 1.66016 32.2153 2.53174 32.7466 3.61084C33.2778 4.68994 33.6182 5.89355 33.7676 7.22168C33.917 8.5498 34 9.89453 34.0166 11.2559V11.6792C34.0166 12.3599 34.0249 12.9658 34.0415 13.4971C34.0581 14.0283 34.1245 14.5513 34.2407 15.0659C34.3569 15.5806 34.5312 16.0952 34.7637 16.6099C34.9961 17.1245 35.3447 17.6807 35.8096 18.2783C36.6064 19.3242 37.4199 20.3784 38.25 21.4409C39.0801 22.5034 39.8354 23.5991 40.5161 24.728C41.1968 25.8569 41.7529 27.0356 42.1846 28.2642C42.6162 29.4927 42.8403 30.8208 42.8569 32.2485C42.8569 33.394 42.6826 34.498 42.334 35.5605ZM21.4409 9.6123C21.6733 9.6123 21.8643 9.67041 22.0137 9.78662C22.1631 9.90283 22.2793 10.0605 22.3623 10.2598C22.4453 10.459 22.5034 10.6582 22.5366 10.8574C22.5698 11.0566 22.5864 11.2642 22.5864 11.48C22.5864 11.646 22.5615 11.7788 22.5117 11.8784C22.4619 11.978 22.3872 12.0693 22.2876 12.1523C22.188 12.2354 22.0884 12.3184 21.9888 12.4014C21.8892 12.4844 21.7896 12.584 21.6899 12.7002C21.5737 12.8828 21.416 13.0322 21.2168 13.1484C21.0176 13.2646 20.8267 13.3892 20.644 13.522C20.4614 13.6548 20.2954 13.7959 20.146 13.9453C19.9966 14.0947 19.9219 14.3022 19.9219 14.5679C19.9219 14.7173 19.9966 14.8418 20.146 14.9414C20.5444 15.207 20.8267 15.5308 20.9927 15.9126C21.1587 16.2944 21.3413 16.668 21.5405 17.0332C21.7397 17.3984 21.9971 17.7056 22.3125 17.9546C22.6279 18.2036 23.1177 18.3281 23.7817 18.3281H23.9312C24.5952 18.2949 25.2261 18.1206 25.8237 17.8052C26.4214 17.4897 27.019 17.1577 27.6167 16.8091C27.6997 16.7593 27.8076 16.7095 27.9404 16.6597C28.0732 16.6099 28.1812 16.5518 28.2642 16.4854L30.082 15.0659C30.1152 14.9497 30.1401 14.8418 30.1567 14.7422C30.1733 14.6426 30.1899 14.5264 30.2065 14.3936C30.2065 14.2109 30.165 14.0615 30.082 13.9453C29.999 13.8291 29.8994 13.7295 29.7832 13.6465C29.667 13.5635 29.5259 13.5054 29.3599 13.4722C29.1938 13.439 29.0444 13.3975 28.9116 13.3477C28.5132 13.2646 28.1396 13.1152 27.791 12.8994C27.4424 12.6836 27.0771 12.5176 26.6953 12.4014C26.6289 12.3848 26.5791 12.335 26.5459 12.252C26.5127 12.1689 26.4795 12.0693 26.4463 11.9531C26.4131 11.8369 26.4048 11.729 26.4214 11.6294C26.438 11.5298 26.4297 11.4468 26.3965 11.3804C26.3965 11.1812 26.4131 10.9736 26.4463 10.7578C26.4795 10.542 26.5542 10.3345 26.6704 10.1353C26.7866 9.93604 26.9194 9.78662 27.0688 9.68701C27.2183 9.5874 27.4341 9.5293 27.7163 9.5127C28.231 9.5127 28.6045 9.70361 28.8369 10.0854C29.0693 10.4673 29.1938 10.8823 29.2104 11.3306C29.2104 11.5464 29.1689 11.7373 29.0859 11.9033C29.0029 12.0693 28.9614 12.252 28.9614 12.4512C28.9614 12.584 29.0029 12.6753 29.0859 12.7251C29.1689 12.7749 29.2769 12.8081 29.4097 12.8247C29.7915 12.8247 30.0405 12.7334 30.1567 12.5508C30.2729 12.3682 30.3394 12.0942 30.356 11.729C30.356 11.3472 30.3228 10.9238 30.2563 10.459C30.1899 9.99414 30.0571 9.5625 29.8579 9.16406C29.6587 8.76562 29.4014 8.43359 29.0859 8.16797C28.7705 7.90234 28.3638 7.76953 27.8657 7.76953C27.0024 7.76953 26.3799 7.98535 25.998 8.41699C25.6162 8.84863 25.417 9.49609 25.4004 10.3594C25.4004 10.6084 25.417 10.8574 25.4502 11.1064C25.4834 11.3555 25.5 11.6045 25.5 11.8535C25.5 11.9365 25.4917 11.978 25.4751 11.978C25.4585 11.978 25.4087 11.9614 25.3257 11.9282C25.2427 11.895 25.1431 11.8535 25.0269 11.8037C24.9106 11.7539 24.7861 11.7124 24.6533 11.6792C24.5205 11.646 24.3877 11.6294 24.2549 11.6294C24.2217 11.6294 24.1387 11.6377 24.0059 11.6543C23.873 11.6709 23.7402 11.6792 23.6074 11.6792C23.375 11.6792 23.2588 11.6377 23.2588 11.5547C23.2588 11.3057 23.2422 10.9902 23.209 10.6084C23.1758 10.2266 23.0928 9.84473 22.96 9.46289C22.8271 9.08105 22.6611 8.76562 22.4619 8.5166C22.2627 8.26758 21.9639 8.13477 21.5654 8.11816C21.2832 8.11816 21.0425 8.20947 20.8433 8.39209C20.644 8.57471 20.4697 8.79053 20.3203 9.03955C20.1709 9.28857 20.0796 9.5708 20.0464 9.88623C20.0132 10.2017 19.98 10.4673 19.9468 10.6831C19.9468 10.7827 19.9634 10.957 19.9966 11.2061C20.0298 11.4551 20.0879 11.7124 20.1709 11.978C20.2539 12.2437 20.3452 12.4761 20.4448 12.6753C20.5444 12.8745 20.6606 12.9741 20.7935 12.9741C20.8765 12.9741 20.9844 12.916 21.1172 12.7998C21.25 12.6836 21.3164 12.5757 21.3164 12.4761C21.3164 12.4263 21.2915 12.3931 21.2417 12.3765C21.1919 12.3599 21.1421 12.3516 21.0923 12.3516C20.9761 12.3516 20.8765 12.2935 20.7935 12.1772C20.7104 12.061 20.644 11.9282 20.5942 11.7788C20.5444 11.6294 20.4946 11.4717 20.4448 11.3057C20.395 11.1396 20.3784 11.0151 20.395 10.9321C20.395 10.6001 20.4697 10.3013 20.6191 10.0356C20.7686 9.77002 21.0425 9.62891 21.4409 9.6123ZM16.0122 48.3853C16.4106 48.3853 16.8008 48.3521 17.1826 48.2856C17.5645 48.2192 17.9214 48.0864 18.2534 47.8872C18.5854 47.688 18.8345 47.4307 19.0005 47.1152C19.1665 46.7998 19.2661 46.4014 19.2993 45.9199C19.2993 45.6211 19.2495 45.3306 19.1499 45.0483C19.0503 44.7661 18.9092 44.5005 18.7266 44.2515C18.5273 43.936 18.3115 43.6372 18.0791 43.355C17.8467 43.0728 17.6309 42.7739 17.4316 42.4585C17.1162 41.9937 16.8091 41.5371 16.5103 41.0889C16.2114 40.6406 15.9126 40.1675 15.6138 39.6694C15.3481 39.2378 15.0991 38.8062 14.8667 38.3745C14.6343 37.9429 14.3521 37.5195 14.02 37.1045C13.8208 36.8555 13.5884 36.6313 13.3228 36.4321C13.0571 36.2329 12.75 36.1333 12.4014 36.1333C12.0361 36.1333 11.7207 36.2495 11.4551 36.4819C11.1895 36.7144 10.9155 36.9966 10.6333 37.3286C10.3511 37.6606 10.0356 37.9844 9.68701 38.2998C9.33838 38.6152 8.89014 38.8643 8.34229 39.0469C7.91064 39.1797 7.57861 39.3623 7.34619 39.5947C7.11377 39.8271 6.99756 40.1841 6.99756 40.6655C6.99756 40.9976 7.02246 41.3296 7.07227 41.6616C7.12207 41.9937 7.15527 42.3257 7.17188 42.6577C7.17188 43.106 7.10547 43.5293 6.97266 43.9277C6.83984 44.3262 6.77344 44.7163 6.77344 45.0981C6.77344 45.5464 6.93115 45.8618 7.24658 46.0444C7.56201 46.2271 7.91895 46.3516 8.31738 46.418C8.81543 46.501 9.28857 46.5674 9.73682 46.6172C10.1851 46.667 10.625 46.7417 11.0566 46.8413C11.4883 46.9409 11.9199 47.0488 12.3516 47.165C12.7832 47.2812 13.2397 47.4639 13.7212 47.7129C13.8208 47.7627 13.9702 47.8208 14.1694 47.8872C14.3687 47.9536 14.5928 48.0283 14.8418 48.1113C15.0908 48.1943 15.3232 48.2607 15.5391 48.3105C15.7549 48.3604 15.9126 48.3853 16.0122 48.3853ZM25.1265 45.397C25.5913 45.397 26.0894 45.3472 26.6206 45.2476C27.1519 45.1479 27.6831 45.0068 28.2144 44.8242C28.7456 44.6416 29.252 44.4258 29.7334 44.1768C30.2148 43.9277 30.6465 43.6538 31.0283 43.355C31.0615 43.3218 31.0947 43.272 31.1279 43.2056C31.1611 43.1392 31.186 43.0728 31.2026 43.0063V42.9814C31.3022 42.6162 31.3853 42.2178 31.4517 41.7861C31.5181 41.3545 31.5762 40.9146 31.626 40.4663C31.6758 40.0181 31.7339 39.5781 31.8003 39.1465C31.8667 38.7148 31.9248 38.2915 31.9746 37.8765C32.041 37.4282 32.124 36.9966 32.2236 36.5815C32.3232 36.1665 32.4561 35.7764 32.6221 35.4111C32.7881 35.0459 33.0122 34.7222 33.2944 34.4399C33.5767 34.1577 33.9419 33.8921 34.3901 33.6431V33.5933L34.3652 33.5186C34.3652 33.3691 34.415 33.2114 34.5146 33.0454C34.6143 32.8794 34.7388 32.7051 34.8882 32.5225C35.0376 32.3398 35.1953 32.1987 35.3613 32.0991C35.5273 31.9995 35.7017 31.9165 35.8843 31.8501C35.7847 31.4517 35.6768 31.0532 35.5605 30.6548C35.4443 30.2563 35.3447 29.8579 35.2617 29.4595C35.1621 28.8618 35.0625 28.3555 34.9629 27.9404C34.8633 27.5254 34.7471 27.1436 34.6143 26.7949C34.4814 26.4463 34.2905 26.106 34.0415 25.7739C33.7925 25.4419 33.4854 25.0435 33.1201 24.5786C32.9375 24.3628 32.813 24.1968 32.7466 24.0806C32.6802 23.9644 32.6304 23.7568 32.5972 23.458C32.5806 23.3418 32.5308 23.126 32.4478 22.8105C32.3647 22.4951 32.2568 22.1299 32.124 21.7148C31.9912 21.2998 31.8418 20.8682 31.6758 20.4199C31.5098 19.9717 31.3271 19.5649 31.1279 19.1997C30.9287 18.8345 30.7461 18.5273 30.5801 18.2783C30.4141 18.0293 30.2397 17.9048 30.0571 17.9048C29.6587 17.9048 29.1855 18.0625 28.6377 18.3779C28.0898 18.6934 27.5088 19.042 26.8945 19.4238C26.2803 19.8057 25.6826 20.1626 25.1016 20.4946C24.5205 20.8267 23.9976 20.9844 23.5327 20.9678C23.0347 20.9678 22.5781 20.8101 22.1631 20.4946C21.748 20.1792 21.3662 19.814 21.0176 19.3989C20.6689 18.9839 20.3784 18.627 20.146 18.3281C19.9136 18.0293 19.7393 17.8633 19.623 17.8301C19.4902 17.8301 19.4155 17.9297 19.3989 18.1289C19.3823 18.3281 19.374 18.5522 19.374 18.8013V19.2246C19.374 19.3242 19.3574 19.3906 19.3242 19.4238C19.1416 19.8057 18.9424 20.1792 18.7266 20.5444C18.5107 20.9097 18.2949 21.2832 18.0791 21.665C17.8633 22.0469 17.6973 22.437 17.5811 22.8354C17.4648 23.2339 17.3984 23.6489 17.3818 24.0806C17.3818 24.3296 17.3984 24.5786 17.4316 24.8276C17.4648 25.0767 17.5479 25.3174 17.6807 25.5498L17.6309 25.6494C17.498 25.832 17.3569 25.998 17.2075 26.1475C17.0581 26.2969 16.917 26.4712 16.7842 26.6704C16.1699 27.5835 15.7383 28.5713 15.4893 29.6338C15.2402 30.6963 15.1074 31.7754 15.0908 32.8711C15.0908 33.1533 15.1074 33.4355 15.1406 33.7178C15.1738 34 15.1904 34.2822 15.1904 34.5645C15.1904 34.6475 15.1821 34.7388 15.1655 34.8384C15.1489 34.938 15.1406 35.0293 15.1406 35.1123C15.4229 35.1289 15.7549 35.2451 16.1367 35.4609C16.5186 35.6768 16.9336 35.9507 17.3818 36.2827C17.8301 36.6147 18.2534 36.9966 18.6519 37.4282C19.0503 37.8599 19.4321 38.2832 19.7974 38.6982C20.1626 39.1133 20.4282 39.5283 20.5942 39.9434C20.7603 40.3584 20.8682 40.6987 20.918 40.9644C20.918 41.396 20.7852 41.7446 20.5195 42.0103C20.2539 42.2759 19.9219 42.4917 19.5234 42.6577C19.8057 43.1558 20.1543 43.5791 20.5693 43.9277C20.9844 44.2764 21.4326 44.5586 21.9141 44.7744C22.3955 44.9902 22.9185 45.1479 23.4829 45.2476C24.0474 45.3472 24.5952 45.397 25.1265 45.397ZM35.1123 48.9331C35.4609 48.9331 35.8013 48.8833 36.1333 48.7837C36.6479 48.6343 37.1211 48.4185 37.5527 48.1362C37.9844 47.854 38.3828 47.5054 38.748 47.0903C39.1963 46.5757 39.6694 46.1274 40.1675 45.7456C40.6655 45.3638 41.23 45.0151 41.8608 44.6997C42.1431 44.5669 42.417 44.4424 42.6826 44.3262C42.9482 44.21 43.2222 44.0688 43.5044 43.9028C43.687 43.7866 43.8613 43.6455 44.0273 43.4795C44.1934 43.3135 44.2764 43.1143 44.2764 42.8818C44.2764 42.749 44.2515 42.6245 44.2017 42.5083C44.1519 42.3921 44.0771 42.2676 43.9775 42.1348C43.7285 41.7861 43.5127 41.4624 43.3301 41.1636C43.1475 40.8647 42.9897 40.5493 42.8569 40.2173C42.7241 39.8853 42.5913 39.5532 42.4585 39.2212C42.3257 38.8892 42.2095 38.5156 42.1099 38.1006C42.0933 38.0176 42.0352 37.9097 41.9355 37.7769C41.5869 37.2788 41.0972 37.0298 40.4663 37.0298C40.1675 37.0298 39.8853 37.1045 39.6196 37.2539C39.354 37.4033 39.0718 37.561 38.7729 37.7271C38.4741 37.8931 38.1753 38.0508 37.8765 38.2002C37.5776 38.3496 37.2622 38.4243 36.9302 38.4243C36.5981 38.4243 36.3242 38.3413 36.1084 38.1753C35.8926 38.0093 35.71 37.7852 35.5605 37.5029C35.4111 37.2207 35.2866 36.9468 35.187 36.6812C35.0874 36.4155 34.9878 36.1416 34.8882 35.8594C34.7554 36.0752 34.606 36.2744 34.4399 36.457C34.2739 36.6396 34.1411 36.8555 34.0415 37.1045C33.8257 37.6025 33.6929 38.1587 33.6431 38.7729C33.5601 39.7358 33.4521 40.6738 33.3193 41.5869C33.1865 42.5 32.9624 43.4131 32.647 44.3262C32.564 44.5918 32.4976 44.8823 32.4478 45.1978C32.3979 45.5132 32.3647 45.8203 32.3481 46.1191C32.3481 46.9326 32.5972 47.605 33.0952 48.1362C33.5933 48.6675 34.2656 48.9331 35.1123 48.9331Z" fill="white"/>
</svg>
